<svg width="75" height="75" viewBox="0 0 75 75" fill="none" xmlns="http://www.w3.org/2000/svg">
<path d="M37.5 0C16.7895 0 0 16.7897 0 37.5C0 58.2117 16.7897 75 37.5 75C58.212 75 75 58.2117 75 37.5C75 16.7912 58.212 0.00205078 37.4994 0.00205078L37.4997 0.000292969L37.5 0ZM54.697 54.0861C54.0252 55.1877 52.5832 55.5369 51.4816 54.8607C42.6771 49.4827 31.5935 48.2646 18.5402 51.247C17.9358 51.3845 17.3014 51.2764 16.7767 50.9464C16.2519 50.6164 15.8797 50.0915 15.7418 49.4871C15.6731 49.1879 15.6641 48.8781 15.7153 48.5754C15.7665 48.2727 15.8769 47.9831 16.0402 47.7231C16.2034 47.4632 16.4164 47.2379 16.6668 47.0604C16.9173 46.8828 17.2003 46.7564 17.4996 46.6884C31.7848 43.4247 44.0376 44.8298 53.9224 50.8708C55.0239 51.547 55.3731 52.9846 54.697 54.0861ZM59.2869 43.8753C58.4402 45.2508 56.6402 45.6853 55.2656 44.8389C45.1857 38.6432 29.8204 36.8487 17.898 40.4678C16.3518 40.9348 14.7188 40.0635 14.2494 38.5198C13.7836 36.9735 14.6555 35.3435 16.1991 34.8735C29.8178 30.7409 46.7484 32.7428 58.3242 39.8561C59.6988 40.7027 60.1333 42.5027 59.2869 43.8756V43.8753ZM59.681 33.2426C47.5948 26.0637 27.6545 25.4033 16.1153 28.9061C14.2623 29.468 12.3026 28.4218 11.7413 26.5688C11.1797 24.7148 12.2247 22.7566 14.0792 22.1933C27.3252 18.172 49.3459 18.9492 63.2604 27.2098C64.931 28.1988 65.4771 30.3516 64.4874 32.0159C63.5024 33.6829 61.3438 34.2322 59.6827 33.2426H59.681Z" fill="#1ED760"/>
</svg>
